<?xml version="1.0" encoding="UTF-8"?>
<svg width="163px" height="39px" viewBox="0 0 163 39" version="1.1" xmlns="http://www.w3.org/2000/svg" xmlns:xlink="http://www.w3.org/1999/xlink">    
    <title>ever logo</title>
    <desc>Ever Logo</desc>
    <defs></defs>
    <g id="start-screens" stroke="none" stroke-width="1" fill="none" fill-rule="evenodd">
        <g id="get-inside-or-invite" transform="translate(-106.000000, -213.000000)" fill="#FFFFFF">
            <path d="M138.928,247.258 C134.725,249.991 128.98,251.602 123.024,251.602 C111.605,251.602 106,244.596 106,235.278 C106,222.807 115.248,213 128.208,213 C137.597,213 142.502,218.324 142.502,225.61 C142.502,228.903 141.31,233.247 140.259,235.208 L118.47,235.208 C118.4,238.641 120.783,241.233 125.546,241.233 C128.699,241.233 133.183,239.551 135.426,238.011 L138.928,247.258 Z M132.133,226.1 C132.133,224.069 130.521,222.598 127.578,222.598 C123.725,222.598 120.993,224.91 119.942,227.922 L131.782,227.922 C131.992,227.291 132.133,226.661 132.133,226.1 Z M152.1637,227.7114 C152.5147,225.9604 152.4447,224.6294 150.9027,224.6294 C149.7817,224.6294 148.5917,224.9094 147.4697,225.3994 L148.9407,214.7504 C151.1137,213.9094 153.9157,213.3494 157.6287,213.3494 C163.6537,213.3494 167.3667,216.2224 165.8967,224.4184 L164.3537,232.9664 C163.7237,236.9594 164.6347,239.0614 167.3667,239.0614 C171.3597,239.0614 173.8827,235.9784 173.8827,227.0114 C173.8827,222.6674 173.0417,217.5534 172.0607,213.9804 L186.0027,213.9804 C186.3537,215.8714 187.0537,221.0564 187.0537,225.7494 C187.0537,242.1444 179.4877,251.3214 165.5457,251.3214 C153.7057,251.3214 149.1507,245.0864 150.9027,235.0674 L152.1637,227.7114 Z M225.5105,247.258 C221.3065,249.991 215.5615,251.602 209.6075,251.602 C198.1875,251.602 192.5815,244.596 192.5815,235.278 C192.5815,222.807 201.8305,213 214.7915,213 C224.1795,213 229.0835,218.324 229.0835,225.61 C229.0835,228.903 227.8915,233.247 226.8415,235.208 L205.0535,235.208 C204.9835,238.641 207.3645,241.233 212.1295,241.233 C215.2825,241.233 219.7655,239.551 222.0075,238.011 L225.5105,247.258 Z M218.7145,226.1 C218.7145,224.069 217.1035,222.598 214.1605,222.598 C210.3075,222.598 207.5755,224.91 206.5245,227.922 L218.3655,227.922 C218.5745,227.291 218.7145,226.661 218.7145,226.1 Z M239.7282,227.7114 C240.0082,225.9604 240.0082,224.6294 238.4672,224.6294 C236.9952,224.6294 235.1032,225.3294 234.9632,225.3994 L236.5052,214.7504 C236.7852,214.6114 240.4982,213.3494 245.2622,213.3494 C249.4662,213.3494 252.5492,214.8904 253.4592,218.6044 C255.7022,215.3814 258.4342,213.3494 262.7782,213.3494 C265.8592,213.3494 268.5232,214.4704 268.9422,214.8204 L265.2282,227.1514 C264.8792,226.8714 261.8662,225.6804 258.5732,225.6804 C254.8602,225.6804 252.9682,228.4824 252.1982,231.4944 L248.8352,250.6214 L235.7332,250.6214 L239.7282,227.7114 Z" id="ever-logo"></path>
        </g>
    </g>
</svg>