<svg xmlns="http://www.w3.org/2000/svg" xmlns:xlink="http://www.w3.org/1999/xlink" width="126.461" height="106.71" viewBox="0 0 126.461 106.71">
  <defs>
  <g>
    <clipPath id="clip-path">
      <path id="Clip_2" data-name="Clip 2" d="M0,0H17.033V14.941H0Z" transform="translate(0 0.771)" fill="none"/>
    </clipPath>
    <clipPath id="clip-path-2">
      <path id="Clip_5" data-name="Clip 5" d="M0,0H13.53V15.517H0Z" transform="translate(0.726 0.483)" fill="none"/>
    </clipPath>
    <clipPath id="clip-path-3">
      <path id="Clip_18" data-name="Clip 18" d="M0,0H70V70H0Z" transform="translate(0.941 0.29)" fill="none"/>
    </clipPath>
  </defs>
  <g id="Group_32" data-name="Group 32" transform="translate(0 -1)" fill="var(--ion-color-secondary)">
    <g id="Group_3" data-name="Group 3" transform="translate(0 91.71)">
      <path id="Clip_2-2" data-name="Clip 2" d="M0,0H17.033V14.941H0Z" transform="translate(0 0.771)" fill="none"/>
      <g id="Group_3-2" data-name="Group 3" clip-path="url(#clip-path)">
        <path id="Fill_1" data-name="Fill 1" d="M17.033.744V14.2a.744.744,0,0,1-.744.744H14.467a.744.744,0,0,1-.745-.744V3.694h-.359l-3.031,10a.744.744,0,0,1-.712.529H7.413a.745.745,0,0,1-.712-.529l-3.03-10h-.36V14.2a.745.745,0,0,1-.744.744H.744A.744.744,0,0,1,0,14.2V.744A.744.744,0,0,1,.744,0H5.07a.744.744,0,0,1,.718.548L7.8,7.884a.745.745,0,0,0,1.436,0L11.245.548A.744.744,0,0,1,11.963,0h4.326a.744.744,0,0,1,.744.744" transform="translate(0 0.771)" />
      </g>
    </g>
    <g id="Group_6" data-name="Group 6" transform="translate(23 91.71)">
      <path id="Clip_5-2" data-name="Clip 5" d="M0,0H13.53V15.517H0Z" transform="translate(0.726 0.483)" fill="none"/>
      <g id="Group_6-2" data-name="Group 6" clip-path="url(#clip-path-2)">
        <path id="Fill_4" data-name="Fill 4" d="M6.765,15.517a7.713,7.713,0,0,1-3.959-.888A5.03,5.03,0,0,1,.659,11.906,14.4,14.4,0,0,1,0,7.144,6.485,6.485,0,0,1,.473,4.213c.056-.149.119-.317.186-.507A5.207,5.207,0,0,1,2.806.923,7.475,7.475,0,0,1,6.765,0a7.471,7.471,0,0,1,3.957.923A5.207,5.207,0,0,1,12.87,3.706c.067.19.131.359.187.508a6.477,6.477,0,0,1,.473,2.93,14.625,14.625,0,0,1-.635,4.7,5.1,5.1,0,0,1-2.123,2.747A7.577,7.577,0,0,1,6.765,15.517Zm0-12.639a3.134,3.134,0,0,0-2,.588,2.713,2.713,0,0,1-.391.256,1.123,1.123,0,0,0-.652.858l0,.013a8.009,8.009,0,0,0-.309,2.552,14.508,14.508,0,0,0,.265,3.07,3.206,3.206,0,0,0,1,1.8,3.163,3.163,0,0,0,2.1.623A3.369,3.369,0,0,0,8.792,12.1,2.966,2.966,0,0,0,9.823,10.37a13.757,13.757,0,0,0,.3-3.226,8.031,8.031,0,0,0-.307-2.549l0-.016a1.123,1.123,0,0,0-.652-.857,2.7,2.7,0,0,1-.392-.256A3.131,3.131,0,0,0,6.765,2.878Z" transform="translate(0.726 0.483)" />
      </g>
    </g>
    <path id="Fill_7" data-name="Fill 7" d="M2.567,14.941H.745A.746.746,0,0,1,0,14.2V.744A.746.746,0,0,1,.745,0H6a6.852,6.852,0,0,1,4.354,1.072c.977.779,1.451,2.056,1.451,3.9a4.436,4.436,0,0,1-1.474,3.7A5.811,5.811,0,0,1,6,10.191H4.055a.745.745,0,0,0-.744.744V14.2A.745.745,0,0,1,2.567,14.941ZM4.055,2.831a.745.745,0,0,0-.744.743V6.616a.745.745,0,0,0,.744.744H5.974C7.648,7.36,8.445,7,8.445,4.975c0-.843-.142-.994-.425-1.294-.049-.052-.1-.111-.163-.178a2.39,2.39,0,0,0-1.883-.671Z" transform="translate(43.949 92.481)" />
    <path id="Fill_9" data-name="Fill 9" d="M2.567,14.941H.744A.745.745,0,0,1,0,14.2V.744A.745.745,0,0,1,.744,0H6a6.855,6.855,0,0,1,4.355,1.072c.977.779,1.452,2.056,1.452,3.9a4.434,4.434,0,0,1-1.476,3.7A5.811,5.811,0,0,1,6,10.191H4.056a.746.746,0,0,0-.745.744V14.2A.745.745,0,0,1,2.567,14.941Zm1.49-12.11a.745.745,0,0,0-.745.743V6.616a.746.746,0,0,0,.745.744H5.974c1.674,0,2.47-.357,2.47-2.385,0-.843-.142-.994-.425-1.294-.049-.052-.1-.111-.163-.178a2.39,2.39,0,0,0-1.883-.671Z" transform="translate(61.941 92.481)" />
    <path id="Fill_11" data-name="Fill 11" d="M12.472,14.941H10.709a.741.741,0,0,1-.727-.585l-.391-1.781a.741.741,0,0,0-.727-.585H4.352a.739.739,0,0,0-.727.585l-.392,1.781a.746.746,0,0,1-.726.585H.745a.743.743,0,0,1-.723-.922L3.326.566A.743.743,0,0,1,4.049,0H9.167A.742.742,0,0,1,9.89.566l3.3,13.453a.743.743,0,0,1-.722.922ZM6.608,2.735a.747.747,0,0,0-.721.557L4.618,8.18a.745.745,0,0,0,.721.931H7.877A.744.744,0,0,0,8.6,8.18L7.328,3.292A.743.743,0,0,0,6.608,2.735Z" transform="translate(78.315 92.481)" />
    <path id="Fill_13" data-name="Fill 13" d="M0,12.341a.741.741,0,0,1,.157-.456L6.813,3.311V2.879H.745A.744.744,0,0,1,0,2.135V.744A.744.744,0,0,1,.745,0h9.306A.744.744,0,0,1,10.8.744V2.623a.75.75,0,0,1-.156.458l-6.657,8.55v.432h6.069a.744.744,0,0,1,.744.744V14.2a.744.744,0,0,1-.744.745H.745A.744.744,0,0,1,0,14.2Z" transform="translate(96.99 92.48)" />
    <path id="Fill_15" data-name="Fill 15" d="M12.473,14.941H10.71a.739.739,0,0,1-.727-.585l-.391-1.781a.741.741,0,0,0-.727-.585H4.352a.748.748,0,0,0-.726.585l-.392,1.781a.747.747,0,0,1-.727.585H.745a.744.744,0,0,1-.724-.922L3.326.566A.741.741,0,0,1,4.049,0H9.167a.743.743,0,0,1,.724.566l3.3,13.453a.743.743,0,0,1-.722.922ZM6.609,2.735a.747.747,0,0,0-.721.557L4.619,8.18a.744.744,0,0,0,.721.931H7.878A.744.744,0,0,0,8.6,8.18L7.329,3.292A.743.743,0,0,0,6.609,2.735Z" transform="translate(113.244 92.481)" />
	</g>
    <g id="Group_19" data-name="Group 19" transform="translate(26 0.71)">
      <path id="Clip_18-2" data-name="Clip 18" d="M0,0H70V70H0Z" transform="translate(0.941 0.29)" fill="none"/>
      <g id="Group_19-2" data-name="Group 19" clip-path="url(#clip-path-3)">
        <path id="Fill_17" data-name="Fill 17" d="M35,70h0A35,35,0,1,1,70,35,35,35,0,0,1,35,70" transform="translate(0.941 0.289)" fill="var(--ion-color-secondary)"/>
      </g>
    </g>
    <path id="Fill_20" data-name="Fill 20" d="M.559,7.348,0,7.2A30.515,30.515,0,0,0,9.437,9.167l.129-7.492A24.2,24.2,0,0,1,2.5,0Z" transform="translate(55.094 54.085)" fill="#e67507"/>
    <path id="Fill_22" data-name="Fill 22" d="M6.315,12.271l5.321-5.433A24.226,24.226,0,0,1,7.236,0L0,1.824A30.559,30.559,0,0,0,6.315,12.271" transform="translate(37.161 41.141)" fill="#e67507"/>
    <path id="Fill_24" data-name="Fill 24" d="M12,4.641A24.112,24.112,0,0,1,5.323,0L0,5.435A30.562,30.562,0,0,0,10.026,12.1Z" transform="translate(44.383 48.92)" fill="#e67507"/>
    <path id="Fill_26" data-name="Fill 26" d="M1.38,9.3,8.524,7.5A24.341,24.341,0,0,1,7.073,0L0,.016a30.526,30.526,0,0,0,1.474,9.66Z" transform="translate(35.392 32.416)" fill="#e67507"/>
    <path id="Fill_28" data-name="Fill 28" d="M38.562,37.887l.3-12.2a1.286,1.286,0,0,0-1.06-1.266c-6.084-.9-10.927-2.163-15.409-6.807C17.359,12.6,16.986,7.094,15.9,1.32A1.255,1.255,0,0,0,14.7.3L2.506,0A2.348,2.348,0,0,0,.1,2.29L0,6.362l8.378-.019c.006,0,.011,0,.017,0s.013,0,.02,0a1.253,1.253,0,0,1,.244.056,1.349,1.349,0,0,1,.279.064,1.3,1.3,0,0,1,.191.128,1.356,1.356,0,0,1,.246.176,1.31,1.31,0,0,1,.137.2,1.312,1.312,0,0,1,.154.243,1.349,1.349,0,0,1,.054.263,1.323,1.323,0,0,1,.053.259c0,.007,0,.012,0,.019s0,.012,0,.018A21.51,21.51,0,0,0,30.7,29.8a1.391,1.391,0,0,1,1.356,1.425c0,.043-.023.079-.028.121l-.149,8.728,4.28.106a2.348,2.348,0,0,0,2.4-2.289" transform="translate(35.438 23.286)" fill="var(--ion-color-primary)"/>
    <path id="Fill_30" data-name="Fill 30" d="M21.4,29.253l.312-12.592a5.569,5.569,0,0,1,.652-2.508,22.228,22.228,0,0,1,4.116-5.222,13.258,13.258,0,0,1,3.845-2.8,1.027,1.027,0,0,0,.325-1.652L26.7.319a1.037,1.037,0,0,0-1.676.259,15.381,15.381,0,0,1-2.894,3.774,22.7,22.7,0,0,1-4.342,3.479,6.406,6.406,0,0,1-3.422.892L1.555,8.405a1.479,1.479,0,0,0-1.543,1.7c.6,5.047,1.219,9.774,5.845,14.47,4.512,4.58,8.7,4.747,13.618,6.119A1.528,1.528,0,0,0,21.4,29.253" transform="translate(54.452 13.873)" fill="#e67507"/>
  </g>
</svg>
