<svg xmlns="http://www.w3.org/2000/svg" xmlns:xlink="http://www.w3.org/1999/xlink" width="44.366" height="44.366" viewBox="0 0 44.366 44.366">
  <defs>
    <clipPath id="clip-path">
      <path id="Clip_18" data-name="Clip 18" d="M0,0H44.366V44.366H0Z" transform="translate(0.596 0.184)" fill="none"/>
    </clipPath>
  </defs>
  <g id="Group_15" data-name="Group 15" transform="translate(-0.596 -0.184)">
    <g id="Group_19" data-name="Group 19">
      <path id="Clip_18-2" data-name="Clip 18" d="M0,0H44.366V44.366H0Z" transform="translate(0.596 0.184)" fill="none"/>
      <g id="Group_19-2" data-name="Group 19" clip-path="url(#clip-path)">
        <path id="Fill_17" data-name="Fill 17" d="M22.183,44.366h0A22.183,22.183,0,1,1,44.366,22.183,22.183,22.183,0,0,1,22.183,44.366" transform="translate(0.596 0.183)" fill="var(--ion-color-primary)"/>
      </g>
    </g>
    <path id="Fill_20" data-name="Fill 20" d="M.359,4.809,0,4.713A19.239,19.239,0,0,0,6.054,6l.083-4.9A15.268,15.268,0,0,1,1.6,0Z" transform="translate(18.409 34)" fill="#e67507"/>
    <path id="Fill_22" data-name="Fill 22" d="M3.885,8,7.159,4.458A15.932,15.932,0,0,1,4.452,0L0,1.189A20.178,20.178,0,0,0,3.885,8" transform="translate(7.159 26)" fill="#e67507"/>
    <path id="Fill_24" data-name="Fill 24" d="M7.159,3.068A14.461,14.461,0,0,1,3.176,0L0,3.592A18.223,18.223,0,0,0,5.982,8Z" transform="translate(12.273 31)" fill="#e67507"/>
    <path id="Fill_26" data-name="Fill 26" d="M.828,5.766,5.114,4.649A15.542,15.542,0,0,1,4.243,0L0,.01A19.515,19.515,0,0,0,.885,6Z" transform="translate(6.136 20)" fill="#e67507"/>
    <path id="Fill_28" data-name="Fill 28" d="M24.355,23.575l.191-7.59a.8.8,0,0,0-.669-.788c-3.842-.56-6.9-1.346-9.732-4.236C10.963,7.84,10.728,4.414,10.043.821a.789.789,0,0,0-.76-.633L1.583,0A1.473,1.473,0,0,0,.064,1.425L0,3.959l5.291-.012.011,0,.013,0a.8.8,0,0,1,.154.035.863.863,0,0,1,.176.04.821.821,0,0,1,.121.08.857.857,0,0,1,.155.11.815.815,0,0,1,.087.124.815.815,0,0,1,.1.151.828.828,0,0,1,.034.164.812.812,0,0,1,.033.161s0,.007,0,.012,0,.007,0,.011A13.474,13.474,0,0,0,19.388,18.541a.872.872,0,0,1,.856.887.767.767,0,0,1-.018.075l-.094,5.431,2.7.066a1.473,1.473,0,0,0,1.519-1.424" transform="translate(6.136 15)" fill="var(--ion-color-secondary)"/>
    <path id="Fill_30" data-name="Fill 30" d="M13.442,18.074l.2-7.78a3.4,3.4,0,0,1,.409-1.55,13.766,13.766,0,0,1,2.585-3.226,8.327,8.327,0,0,1,2.415-1.731.63.63,0,0,0,.2-1.021L16.766.2a.657.657,0,0,0-1.053.16A9.519,9.519,0,0,1,13.9,2.689a14.222,14.222,0,0,1-2.727,2.15A4.075,4.075,0,0,1,9.02,5.39l-8.043-.2A.92.92,0,0,0,.008,6.244c.379,3.118.766,6.039,3.671,8.94,2.834,2.83,5.467,2.933,8.553,3.781a.957.957,0,0,0,1.211-.891" transform="translate(18.409 9)" fill="#e67507"/>
  </g>
</svg>
