<svg xmlns="http://www.w3.org/2000/svg" width="30.973" height="28.553" viewBox="0 0 30.973 28.553">
  <g id="broom" transform="translate(0 30.285) rotate(-30)">
    <path id="Path" d="M0,0-2.154,10h-9.692L-14,0Z" transform="translate(7) rotate(-180)" fill="none"  stroke-miterlimit="10" stroke-width="1"/>
    <path id="Combined_Shape" data-name="Combined Shape" d="M-13.813,21.984a1.2,1.2,0,0,0,.924-1.213V12.083a1.71,1.71,0,0,1,1.667-1.751h.365A1.683,1.683,0,0,0-9.24,9.008L-9,8H-19l.24,1.008a1.682,1.682,0,0,0,1.616,1.325h.365a1.71,1.71,0,0,1,1.667,1.751v8.75A1.14,1.14,0,0,0-14,22,1.111,1.111,0,0,0-13.813,21.984ZM-1.224,9.447a1.5,1.5,0,0,1,.671-.67L0,8.5l-.553-.275a1.5,1.5,0,0,1-.671-.671L-1.5,7l-.275.553a1.5,1.5,0,0,1-.671.67L-3,8.5l.553.277a1.5,1.5,0,0,1,.671.67L-1.5,10Zm-4-2a1.5,1.5,0,0,1,.67-.671L-4,6.5l-.553-.276a1.5,1.5,0,0,1-.67-.671L-5.5,5l-.276.553a1.5,1.5,0,0,1-.671.671L-7,6.5l.553.276a1.5,1.5,0,0,1,.671.671L-5.5,8ZM-16,7V5h-1V7Zm2.5,0V4h-1V7ZM-11,7V5h-1V7Zm8.368-3.738a2,2,0,0,1,.895-.894L-1,2l-.737-.368A2,2,0,0,1-2.632.737L-3,0l-.369.737a2,2,0,0,1-.895.895L-5,2l.737.369a2,2,0,0,1,.895.894L-3,4Z" transform="translate(0 -2) rotate(-180)"/>
  </g>
</svg>
