<svg xmlns="http://www.w3.org/2000/svg" width="37.445" height="48.155" viewBox="0 0 37.445 48.155">
  <g id="Group_7" data-name="Group 7" transform="translate(0.5)">
    <g id="Combined_Shape" data-name="Combined Shape" transform="translate(3.047 12.515)" stroke-miterlimit="10">
      <path d="M 15.90930366516113 35.13999938964844 C 14.92846393585205 35.13999938964844 14.13049411773682 34.34041976928711 14.13049411773682 33.35759735107422 L 14.13049411773682 25.50239944458008 L 14.13049411773682 25.00239944458008 L 13.63049411773682 25.00239944458008 L 12.71880435943604 25.00239944458008 L 12.21880435943604 25.00239944458008 L 12.21880435943604 25.50239944458008 L 12.21879386901855 33.35759735107422 C 12.21879386901855 34.34041976928711 11.42042446136475 35.13999938964844 10.43909454345703 35.13999938964844 C 9.45777416229248 35.13999938964844 8.659403800964355 34.34041976928711 8.659403800964355 33.35759735107422 L 8.659403800964355 25.50239944458008 L 8.659403800964355 25.00239944458008 L 8.159403800964355 25.00239944458008 L 7.784965991973877 25.00239944458008 L 8.658114433288574 12.86537933349609 L 8.67535400390625 12.62580871582031 L 8.499114036560059 12.4626293182373 L 7.762809753417969 11.78083896636963 C 7.874056339263916 10.19257831573486 7.963449478149414 9.100269317626953 7.997884273529053 8.911539077758789 L 7.041923999786377 8.635719299316406 C 7.040174007415771 8.640058517456055 7.007944107055664 8.724678993225098 6.966274261474609 8.834988594055176 L 6.562374114990234 9.905729293823242 C 5.658964157104492 12.30068874359131 3.543354034423828 17.90923881530762 3.523874044418335 17.96071815490723 C 3.302414178848267 18.54191970825195 2.712913990020752 18.93313980102539 2.057384014129639 18.93317985534668 C 1.873304009437561 18.93319892883301 1.691484093666077 18.9022388458252 1.516954064369202 18.84115982055664 C 1.117434024810791 18.70102882385254 0.8029040694236755 18.42049980163574 0.631644070148468 18.05137825012207 C 0.4708440601825714 17.70477867126465 0.457164078950882 17.31771850585938 0.5931340456008911 16.96149826049805 L 0.6331140398979187 16.85631942749023 L 0.6451340913772583 16.82473945617676 L 0.6569640636444092 16.79364967346191 C 1.938807606697083 13.42547988891602 3.149595260620117 10.21281623840332 4.066465377807617 7.747004985809326 C 4.115248203277588 7.617908477783203 4.982682704925537 5.289830207824707 5.471054077148438 3.928088903427124 C 6.026901721954346 2.378539323806763 6.809248924255371 1.309361219406128 7.801810264587402 0.7398331165313721 C 8.016671180725098 2.005434274673462 8.59976863861084 3.383145093917847 9.40239429473877 4.479548931121826 C 10.5224437713623 6.009579181671143 11.91534423828125 6.852199077606201 13.32449436187744 6.852199077606201 C 14.73331451416016 6.852199077606201 16.12608337402344 6.009589195251465 17.24625396728516 4.479578971862793 C 18.04953575134277 3.38241982460022 18.63266181945801 2.004755735397339 18.84698295593262 0.7399324178695679 C 19.83918762207031 1.30872368812561 20.62163162231445 2.377902269363403 21.17799377441406 3.928189039230347 C 21.64931488037109 5.241768836975098 22.47233390808105 7.453208923339844 22.56463432312012 7.701038837432861 C 22.5661735534668 7.705178737640381 22.75092315673828 8.195459365844727 23.03573417663574 8.949809074401855 L 23.15783500671387 9.273199081420898 L 23.50350379943848 9.273199081420898 L 28.87920379638672 9.273199081420898 C 29.72058486938477 9.273199081420898 30.40510368347168 9.91935920715332 30.40510368347168 10.71359920501709 C 30.40510368347168 11.50833892822266 29.72058486938477 12.15489864349365 28.87920379638672 12.15489864349365 L 22.52180480957031 12.15219879150391 C 21.57142448425293 12.15219879150391 20.71818351745605 11.58173942565918 20.39842414855957 10.73267936706543 L 19.6828441619873 8.835258483886719 C 19.6361141204834 8.710688591003418 19.609375 8.641538619995117 19.609375 8.641538619995117 L 18.65112495422363 8.911519050598145 C 18.68497657775879 9.126922607421875 18.65644454956055 10.51582336425781 18.60916328430176 11.75901126861572 L 17.84929466247559 12.4626293182373 L 17.67305374145508 12.62580871582031 L 17.69029426574707 12.86537933349609 L 18.56343269348145 25.00239944458008 L 18.18899345397949 25.00239944458008 L 17.68899345397949 25.00239944458008 L 17.68899345397949 25.50239944458008 L 17.68900489807129 33.35759735107422 C 17.68900489807129 34.34041976928711 16.89063453674316 35.13999938964844 15.90930366516113 35.13999938964844 Z" stroke="none"/>
      <path d="M 15.90930366516113 34.63999938964844 C 16.61493492126465 34.63999938964844 17.18900489807129 34.06472015380859 17.18900489807129 33.35759735107422 L 17.18899345397949 25.50239944458008 L 17.18899345397949 24.50239944458008 L 18.02617263793945 24.50239944458008 L 17.19158363342285 12.90124893188477 L 17.15711402893066 12.42212867736816 L 17.50957489013672 12.09575939178467 L 18.1171760559082 11.53313636779785 C 18.15738868713379 10.41353797912598 18.18167495727539 9.214448928833008 18.15506362915039 8.974478721618652 C 18.15621376037598 8.984838485717773 18.15787315368652 8.993759155273438 18.15923500061035 9.001249313354492 L 20.07575416564941 8.461278915405273 C 20.07575416564941 8.461278915405273 20.1031436920166 8.532089233398438 20.15067481994629 8.658828735351563 L 20.86633491516113 10.55645942687988 C 21.1131649017334 11.21184921264648 21.77836418151855 11.65219879150391 22.52201461791992 11.65219879150391 L 28.87920379638672 11.65489864349365 C 29.44488334655762 11.65489864349365 29.90510368347168 11.23262882232666 29.90510368347168 10.71359920501709 C 29.90510368347168 10.19505882263184 29.44488334655762 9.773199081420898 28.87920379638672 9.773199081420898 L 23.50350379943848 9.773199081420898 L 22.81215476989746 9.773199081420898 L 22.56796455383301 9.126419067382813 C 22.28276443481445 8.371028900146484 22.09775352478027 7.880058765411377 22.0960636138916 7.87553882598877 C 22.00366401672363 7.627408981323242 21.17967414855957 5.413369178771973 20.70738410949707 4.097078800201416 C 20.30886840820313 2.986630201339722 19.79428291320801 2.148175239562988 19.17046546936035 1.589976906776428 C 18.87136077880859 2.701203346252441 18.33662414550781 3.836694478988647 17.64969444274902 4.774939060211182 C 16.43290328979492 6.436908721923828 14.89685440063477 7.352199077606201 13.32449436187744 7.352199077606201 C 11.8415355682373 7.352199077606201 10.39102458953857 6.538346290588379 9.210278511047363 5.052072048187256 L 8.490154266357422 8.999058723449707 C 8.466120719909668 9.142055511474609 8.396866798400879 9.904749870300293 8.278412818908691 11.576828956604 L 8.838824272155762 12.09574890136719 L 9.191293716430664 12.42212867736816 L 9.156824111938477 12.90125942230225 L 8.322227478027344 24.50239944458008 L 9.159403800964355 24.50239944458008 L 9.159403800964355 25.50239944458008 L 9.159403800964355 33.35759735107422 C 9.159403800964355 34.06472015380859 9.733473777770996 34.63999938964844 10.43909454345703 34.63999938964844 C 11.14472389221191 34.63999938964844 11.71879386901855 34.06472015380859 11.71879386901855 33.35759735107422 L 11.71880435943604 25.50239944458008 L 11.71880435943604 24.50239944458008 L 12.71880435943604 24.50239944458008 L 13.63049411773682 24.50239944458008 L 14.63049411773682 24.50239944458008 L 14.63049411773682 25.50239944458008 L 14.63049411773682 33.35759735107422 C 14.63049411773682 34.06472015380859 15.20416450500488 34.63999938964844 15.90930366516113 34.63999938964844 M 2.057353973388672 18.43317985534668 C 2.506814002990723 18.43314933776855 2.908554077148438 18.17131805419922 3.056234121322632 17.78375816345215 C 3.07802414894104 17.72615814208984 5.191894054412842 12.122239112854 6.09455394744873 9.72925853729248 L 6.498534202575684 8.658288955688477 C 6.542183876037598 8.542758941650391 6.576014041900635 8.454189300537109 6.577834129333496 8.449639320373535 L 8.415047645568848 3.867053985595703 C 8.007988929748535 3.146118402481079 7.686458110809326 2.362261056900024 7.478500843048096 1.589976787567139 C 6.854462623596191 2.148492574691772 6.33985710144043 2.986942529678345 5.941704273223877 4.096879005432129 C 5.459118843078613 5.442489147186279 4.606274127960205 7.732028007507324 4.53550386428833 7.920218944549561 C 3.6181640625 10.38729858398438 2.406703948974609 13.60175895690918 1.124254107475281 16.97153854370117 L 1.112454056739807 17.00253868103027 L 1.100434064865112 17.03411865234375 L 1.062584042549133 17.13365936279297 L 1.061434030532837 17.13673973083496 L 1.060254096984863 17.13980865478516 C 0.9715640544891357 17.37215805053711 0.980194091796875 17.61460876464844 1.085204124450684 17.84093856811523 C 1.200814008712769 18.09012985229492 1.407464027404785 18.27288818359375 1.682104110717773 18.36922836303711 C 1.803404092788696 18.41166877746582 1.929654121398926 18.43318939208984 2.057353973388672 18.43317985534668 M 15.90930366516113 35.63999938964844 C 14.65276432037354 35.63999938964844 13.63049411773682 34.61611938476563 13.63049411773682 33.35759735107422 L 13.63049411773682 25.50239944458008 L 12.71880435943604 25.50239944458008 L 12.71879386901855 33.35759735107422 C 12.71879386901855 34.61611938476563 11.69612407684326 35.63999938964844 10.43909454345703 35.63999938964844 C 9.182064056396484 35.63999938964844 8.159403800964355 34.61611938476563 8.159403800964355 33.35759735107422 L 8.159403800964355 25.50239944458008 L 7.247704029083252 25.50239944458008 L 8.159403800964355 12.82949924468994 L 7.247704029083252 11.9852991104126 C 7.24756383895874 11.98228931427002 7.248973846435547 11.9620189666748 7.251443862915039 11.92642879486084 C 7.309063911437988 11.09666919708252 7.449203968048096 9.133118629455566 7.506003856658936 8.821799278259277 C 7.50434398651123 8.825939178466797 7.473713874816895 8.906588554382324 7.434003829956055 9.011698722839355 C 7.400234222412109 9.101208686828613 4.016304016113281 18.07216835021973 3.991503953933716 18.13769912719727 C 3.696264028549194 18.91251945495605 2.919023990631104 19.43312835693359 2.057414054870605 19.43317985534668 C 1.816954016685486 19.43319892883301 1.579554080963135 19.39279937744141 1.35180401802063 19.3130989074707 C 0.8234740495681763 19.12777900695801 0.4066440761089325 18.75442886352539 0.178084060549736 18.26181983947754 C -0.04001593217253685 17.79171943664551 -0.05851593241095543 17.26660919189453 0.1260040700435638 16.78319931030273 C 0.1283240616321564 16.77699851989746 0.1461440622806549 16.73017883300781 0.1778140664100647 16.64693832397461 L 0.1896840631961823 16.61575889587402 C 1.470904111862183 13.2492094039917 2.681414127349854 10.03729915618896 3.598204135894775 7.571699142456055 C 3.618774175643921 7.518388748168945 4.505194187164307 5.140109062194824 5.000403881072998 3.759299039840698 C 5.714313983917236 1.769118905067444 6.797244071960449 0.5041789412498474 8.219123840332031 -0.0003810400376096368 C 8.295424461364746 1.347679018974304 8.902914047241211 2.950778961181641 9.805844306945801 4.184208869934082 C 10.82928371429443 5.582259178161621 12.07889366149902 6.352199077606201 13.32449436187744 6.352199077606201 C 14.56976413726807 6.352199077606201 15.81926441192627 5.582259178161621 16.84282493591309 4.184208869934082 C 17.74607467651367 2.950509071350098 18.35397338867188 1.347208976745605 18.4293041229248 -1.040039023791905e-06 C 19.85148429870605 0.5034389495849609 20.93416404724121 1.768538951873779 21.64860343933105 3.759299039840698 C 22.11874389648438 5.069589138031006 22.94098472595215 7.278938770294189 23.03319358825684 7.526548862457275 C 23.03459358215332 7.530299186706543 23.21909332275391 8.019899368286133 23.50350379943848 8.773199081420898 L 28.87920379638672 8.773199081420898 C 29.99629402160645 8.773199081420898 30.90510368347168 9.643658638000488 30.90510368347168 10.71359920501709 C 30.90510368347168 11.78403854370117 29.99629402160645 12.65489864349365 28.87920379638672 12.65489864349365 L 22.5215950012207 12.65219879150391 C 21.3644847869873 12.65219879150391 20.32320404052734 11.95161914825439 19.93050384521484 10.90889930725098 L 19.21500396728516 9.011698722839355 C 19.16909408569336 8.889299392700195 19.14300346374512 8.821799278259277 19.14300346374512 8.821799278259277 C 19.21183395385742 9.199138641357422 19.10181427001953 11.95747852325439 19.10069465637207 11.9852991104126 L 18.18900489807129 12.82949924468994 L 19.10069465637207 25.50239944458008 L 18.18899345397949 25.50239944458008 L 18.18900489807129 33.35759735107422 C 18.18900489807129 34.61611938476563 17.16633415222168 35.63999938964844 15.90930366516113 35.63999938964844 Z" stroke="none" />
    </g>
    <g id="Oval" transform="translate(12.105 2.474)" fill="none"  stroke-miterlimit="10" stroke-width="1">
      <ellipse cx="4.265" cy="4.087" rx="4.265" ry="4.087" stroke="none"/>
      <ellipse cx="4.265" cy="4.087" rx="3.765" ry="3.587" fill="none"/>
    </g>
    <path id="Path" d="M8.481.874a10.092,10.092,0,0,0-8.216,0,.437.437,0,0,0-.21.612l1.105,2a.478.478,0,0,0,.607.2,6.675,6.675,0,0,1,5.212,0,.478.478,0,0,0,.607-.2l1.105-2a.437.437,0,0,0-.21-.612Z" transform="translate(11.998 0)" />
    <path id="Path-2" data-name="Path" d="M4.9.1A2.183,2.183,0,0,1,1.766.1.325.325,0,0,0,1.438.014L.222.376A.3.3,0,0,0,.046.823l.989,1.553a1.178,1.178,0,0,0,1.588.361l.708-.423.708.423a1.178,1.178,0,0,0,1.588-.361L6.616.823A.3.3,0,0,0,6.44.376L5.224.014A.325.325,0,0,0,4.9.1Z" transform="translate(12.946 11.432)" />
    <path id="Path-3" data-name="Path" d="M.534,0A.523.523,0,0,0,0,.511a.523.523,0,0,0,.534.511A.523.523,0,0,0,1.067.511.523.523,0,0,0,.534,0Z" transform="translate(15.802 14.909)" />
    <path id="Path-4" data-name="Path" d="M.534,0A.523.523,0,0,0,0,.511a.523.523,0,0,0,.534.511A.523.523,0,0,0,1.067.511.523.523,0,0,0,.534,0Z" transform="translate(15.802 16.881)" />
    <path id="Combined_Shape-2" data-name="Combined Shape" d="M10.121,36.227l-.729-2.181v2.181H7.9l-.488-1.644v1.644H.393A.365.365,0,0,1,.01,35.8l.546-2.207L.725,32.9a1.627,1.627,0,0,1,1.616-1.167H5.313V1A1.061,1.061,0,0,1,6.424,0,1.06,1.06,0,0,1,7.535,1V31.738h2.971A1.627,1.627,0,0,1,12.122,32.9l.17.684.545,2.207a.365.365,0,0,1-.383.431Z" transform="translate(24.098 11.088)"/>
    <path id="Path-5" data-name="Path" d="M6.281,4.03H5.655V.95A1.067,1.067,0,0,0,4.5,0,1.067,1.067,0,0,0,3.346.95V4.03H2.719A2.517,2.517,0,0,0,0,6.268V9.43A.64.64,0,0,0,.693,10H8.307A.64.64,0,0,0,9,9.43V6.268A2.516,2.516,0,0,0,6.281,4.03Z" transform="translate(0 30)" fill="none"  stroke-miterlimit="10" stroke-width="1"/>
  </g>
</svg>
