<svg xmlns="http://www.w3.org/2000/svg" width="14" height="15" viewBox="0 0 14 15">
  <g id="_ionicons_svg_ios-cut" transform="translate(0 -0.5)">
    <path id="Shape" d="M2.489,15A2.443,2.443,0,0,1,.7,14.221a2.605,2.605,0,0,1,0-3.552A2.445,2.445,0,0,1,3.83,10.29c.113-.2.236-.427.365-.669l.042-.077c.131-.255.275-.517.415-.77l0-.005c.1-.169.219-.364.344-.548s.248-.361.352-.509c.209-.3.406-.563.512-.706l.082-.113a.041.041,0,0,0,.007-.008l0-.006.567-.71h0l0,0,.113-.141.391-.483L11.5,0a1.285,1.285,0,0,1,.781.249A1.775,1.775,0,0,1,13,1.714a3.99,3.99,0,0,1-.407,1.666A38.851,38.851,0,0,1,9.068,8.263a7.868,7.868,0,0,1-1.488,1.5l-.528.35a3.4,3.4,0,0,0-1.156,1,10.223,10.223,0,0,0-1.021,2.066,2.537,2.537,0,0,1-.851,1.277A2.42,2.42,0,0,1,2.489,15ZM2.5,11.433a1.013,1.013,0,0,0,0,2.021,1.013,1.013,0,0,0,0-2.021ZM7.039,7.505a.579.579,0,1,0,.626.578A.6.6,0,0,0,7.039,7.505Z" transform="translate(0 0.5)" fill="#fff"/>
    <path id="Shape-2" data-name="Shape" d="M10.5,15a2.433,2.433,0,0,1-1.532-.541,2.54,2.54,0,0,1-.851-1.276A10.083,10.083,0,0,0,7.1,11.118a3.2,3.2,0,0,0-.6-.631L7.926,9.293l.426-.5c.116.208.231.423.343.632l.063.118c.138.259.28.524.406.747a2.422,2.422,0,0,1,1.34-.4A2.557,2.557,0,0,1,10.5,15Zm.007-3.569a1.012,1.012,0,1,0,.938,1.01A.977.977,0,0,0,10.507,11.431ZM3.551,7.754h0a.589.589,0,0,1-.1-.1A29.8,29.8,0,0,1,.407,3.378,4.077,4.077,0,0,1,0,1.713,1.94,1.94,0,0,1,.754.14,1.257,1.257,0,0,1,1.477,0l4.1,5.072L3.762,7.444l-.085.124c-.043.063-.086.125-.125.185Z" transform="translate(1 0.5)" fill="#fff"/>
  </g>
</svg>
