<svg xmlns="http://www.w3.org/2000/svg" width="25" height="25" viewBox="0 0 25 25">
  <path id="Shape" d="M18.269,25H6.731v-.964a.964.964,0,0,1,.961-.964H9.628a2.866,2.866,0,0,1,1.911-2.592V9.178a1.8,1.8,0,0,1-.847-1.53h3.615a1.8,1.8,0,0,1-.846,1.53v11.3a2.866,2.866,0,0,1,1.911,2.592h1.936a.965.965,0,0,1,.961.965V25ZM4.808,18.786A5.124,5.124,0,0,1,0,15.361H1.11l3.248-8.63a.5.5,0,0,1,.9,0l3.248,8.63h1.11A5.124,5.124,0,0,1,4.808,18.786Zm0-10.519-2.67,7.095H7.478ZM20.192,18.785a5.124,5.124,0,0,1-4.808-3.425h1.11l3.248-8.63a.5.5,0,0,1,.9,0l3.248,8.63H25A5.123,5.123,0,0,1,20.192,18.785Zm0-10.518-2.67,7.095h5.341ZM12.5,6.5a1.748,1.748,0,0,1-1.743-1.748,1.564,1.564,0,0,1,.021-.223l0-.029a2.158,2.158,0,0,0-1.647-.713,5.6,5.6,0,0,0-2.42.788L6.7,4.588a10.34,10.34,0,0,1-.978.455.961.961,0,0,1-.913.688.974.974,0,1,1,.7-1.642c.245-.1.508-.235.758-.362a6.345,6.345,0,0,1,2.868-.9,3.076,3.076,0,0,1,2.077.759A1.743,1.743,0,0,1,11.97,3.1a1.137,1.137,0,0,1-.61-.995c0-.623,1.129-2.09,1.14-2.105,0,0,.005.005.011.013A5.819,5.819,0,0,1,13.64,2.105a1.136,1.136,0,0,1-.61.994,1.744,1.744,0,0,1,.757.488,3.083,3.083,0,0,1,2.078-.759,6.336,6.336,0,0,1,2.865.9c.255.128.518.261.761.363a.963.963,0,0,1,.7-.306.973.973,0,0,1,0,1.947.96.96,0,0,1-.913-.688,10.351,10.351,0,0,1-.968-.448L18.3,4.587l-.006,0a5.6,5.6,0,0,0-2.428-.792,2.158,2.158,0,0,0-1.647.714l0,.03a1.541,1.541,0,0,1,.021.22A1.748,1.748,0,0,1,12.5,6.5Z" />
</svg>
