<svg xmlns="http://www.w3.org/2000/svg" width="24" height="25" viewBox="0 0 24 25">
  <path id="Shape" d="M12,25a.687.687,0,0,1-.469-.187,11.186,11.186,0,0,1-2.713-4.289,6.526,6.526,0,0,1-2.466.514c-3.387,0-6.06-3.056-6.172-3.186a.755.755,0,0,1,0-.976,11.336,11.336,0,0,1,2.655-2.153C-.258,11.262,0,5.795.01,5.564a.718.718,0,0,1,.663-.691c.028,0,.183-.01.441-.01A15.306,15.306,0,0,1,4.2,5.191a16.479,16.479,0,0,1,1.06-3.509.707.707,0,0,1,.634-.417.676.676,0,0,1,.233.042,14.954,14.954,0,0,1,3.132,1.7A15.561,15.561,0,0,1,11.531.187a.681.681,0,0,1,.938,0,15.606,15.606,0,0,1,2.276,2.819,15.071,15.071,0,0,1,3.132-1.7.673.673,0,0,1,.233-.042.7.7,0,0,1,.633.415A16.284,16.284,0,0,1,19.8,5.191a15.3,15.3,0,0,1,3.082-.329c.258,0,.413.008.441.01a.717.717,0,0,1,.663.69c.012.231.267,5.7-2.825,9.159a11.2,11.2,0,0,1,2.654,2.153.753.753,0,0,1,0,.976c-.111.13-2.764,3.186-6.171,3.186a6.524,6.524,0,0,1-2.466-.514,11.046,11.046,0,0,1-2.714,4.289A.687.687,0,0,1,12,25Zm0-6.606h0a11.445,11.445,0,0,1-1.9,1.477A9.221,9.221,0,0,0,12,23.222,9.281,9.281,0,0,0,13.9,19.871,11.512,11.512,0,0,1,12,18.394Zm8.043-2.626h0a12.216,12.216,0,0,1-6.25,2.267,6.629,6.629,0,0,0,3.855,1.537,7.327,7.327,0,0,0,4.644-2.209,9.6,9.6,0,0,0-2.249-1.6Zm-16.086,0h0a9.495,9.495,0,0,0-2.249,1.594,7.344,7.344,0,0,0,4.644,2.21,5.534,5.534,0,0,0,2.577-.7A.556.556,0,0,1,9,18.829a9.148,9.148,0,0,0,1.209-.793,12.232,12.232,0,0,1-6.253-2.268ZM1.413,6.333h0c.042,1.5.38,5.24,2.618,7.573a10.088,10.088,0,0,0,6.287,2.665A12.433,12.433,0,0,1,7.306,9.048a9.156,9.156,0,0,1,.063-1.058A12.02,12.02,0,0,0,1.413,6.333Zm21.175,0A12.291,12.291,0,0,0,16.63,7.989a8.961,8.961,0,0,1,.064,1.058,12.429,12.429,0,0,1-3.01,7.52,10.114,10.114,0,0,0,6.286-2.662C22.214,11.567,22.548,7.832,22.588,6.334ZM12,1.765C11.012,2.856,8.712,5.75,8.712,9.048s2.3,6.191,3.288,7.282c.988-1.089,3.289-3.979,3.289-7.282a7.616,7.616,0,0,0-.108-1.261A12.9,12.9,0,0,0,12,1.765ZM17.73,2.952a14.651,14.651,0,0,0-2.266,1.317,12.232,12.232,0,0,1,.866,2.209,11.194,11.194,0,0,1,2.111-.922,15.966,15.966,0,0,0-.71-2.6h0Zm-11.46,0h0a15.96,15.96,0,0,0-.71,2.6,11.216,11.216,0,0,1,2.111.922,12.162,12.162,0,0,1,.866-2.209A14.716,14.716,0,0,0,6.27,2.952Z" transform="translate(0 0)" fill="#d26775"/>
</svg>
