<svg id="Group_2" data-name="Group 2" xmlns="http://www.w3.org/2000/svg" width="156" height="154" viewBox="0 0 156 154">
  <rect id="Rectangle" width="156" height="148" rx="72" transform="translate(0 6)" fill="#ca5163"/>
  <g id="facial-treatment" transform="translate(12)">
    <path id="Shape" d="M16,31.977,14.488,32C9.78,31.1,0,27.352,0,11.834,0,.921,4.115-3.415,12.78,2.977A117.313,117.313,0,0,0,16,31.977Z" transform="translate(15 63)" fill="#f09372"/>
    <path id="Shape-2" data-name="Shape" d="M16,12.152C16,29.153,4.878,32.383.634,33L0,32.834A123.563,123.563,0,0,0,3.22,3.058C12.066-3.638,16,1.229,16,12.152Z" transform="translate(103 63)" fill="#f09372"/>
    <path id="Shape-3" data-name="Shape" d="M84,46.432c0,13.141-1.3,19.662-4.719,33.329A64.758,64.758,0,0,1,73,96.151c-4.2,3.42-5.867,10.613-10.342,12.122a16.144,16.144,0,0,0-7.443,5.566c-1.461,1.84-6.075.354-6.887,2.547a32.573,32.573,0,0,1-12.707-.024c-.835-2.17-17.884-4.51-24.487-20.093A64.716,64.716,0,0,1,4.754,79.76C.281,61.9,0,56.353,0,46.12,6.08,35.248,21.148,12.287,41.971,0,62.887,12.358,77.971,35.607,84,46.432Z" transform="translate(24 17)" fill="#f9c795"/>
    <path id="Shape-4" data-name="Shape" d="M55,18.58C34.434,30.813,21.173,51.194,15.172,62.018c-.6,1.1-1.122,2.113-1.6,2.982-.16-.094-.321-.211-.481-.329l.023-.047A62.488,62.488,0,0,1,.652,17.265L43,0C46.96,1.547,51.339,16.392,55,18.58Z" transform="translate(12)" fill="#50272f"/>
    <path id="Shape-5" data-name="Shape" d="M66.656,64.672c-.164.117-.328.211-.492.328-.286-.469-2.107-4.065-5.454-9.325C48.892,37.275,20.287,13.615,0,6L42,0,79.343,17.32A61.59,61.59,0,0,1,68.809,61.7C66.454,64.965,66.539,64.438,66.656,64.672Z" transform="translate(43)" fill="#50272f"/>
    <path id="Shape-6" data-name="Shape" d="M20.7,9c-.535,0,0,.139-9.641-3.385a9.257,9.257,0,0,0-7.717.6,2.127,2.127,0,0,1-2.305-.139A2.6,2.6,0,0,1,0,3.812a2.535,2.535,0,0,1,1.282-2.1A13.464,13.464,0,0,1,12.511.834l8.915,3.257A2.548,2.548,0,0,1,22.97,6.884,2.372,2.372,0,0,1,20.7,9Z" transform="translate(36 55)" fill="#cb8252"/>
    <path id="Shape-7" data-name="Shape" d="M2.3,9A2.372,2.372,0,0,1,.03,6.883,2.549,2.549,0,0,1,1.574,4.089L10.486.834a13.467,13.467,0,0,1,11.227.874A2.536,2.536,0,0,1,23,3.813a2.6,2.6,0,0,1-1.032,2.264,2.127,2.127,0,0,1-2.305.139,9.235,9.235,0,0,0-7.706-.595C2.27,9.148,2.819,9,2.3,9Z" transform="translate(74 55)" fill="#cb8252"/>
    <path id="Shape-8" data-name="Shape" d="M1,4.4A2.507,2.507,0,0,1,.379,1.07,2.163,2.163,0,0,1,3.5.4a9.376,9.376,0,0,0,11,0A2.128,2.128,0,0,1,16.747.249a2.414,2.414,0,0,1,1.249,2A2.462,2.462,0,0,1,17,4.4,13.623,13.623,0,0,1,1,4.4Z" transform="translate(57 88)" fill="#f09372"/>
    <path id="Shape-9" data-name="Shape" d="M11.5,9c8.1,0,13.494-5.4,10.806-5.4S14.2,0,11.5,0,3.4,3.6.7,3.6,3.4,9,11.5,9Z" transform="translate(55 103)" fill="#df4d60"/>
    <path id="Shape-10" data-name="Shape" d="M6.75,5H2.25A2.385,2.385,0,0,1,0,2.5,2.385,2.385,0,0,1,2.25,0h4.5A2.385,2.385,0,0,1,9,2.5,2.385,2.385,0,0,1,6.75,5Z" transform="translate(61 119)" fill="#f09372"/>
    <path id="Shape-11" data-name="Shape" d="M26,1.264A66.962,66.962,0,0,0,4.216,18.893a2.241,2.241,0,0,1-2.19,1.089A2.342,2.342,0,0,1,.137,18.364a2.624,2.624,0,0,1,.49-2.546A61.721,61.721,0,0,1,17.972,0h5.153C23.52.166,25.14.843,26,1.264Z" transform="translate(32 13)" fill="#222020"/>
    <circle id="Oval" cx="2.5" cy="2.5" r="2.5" transform="translate(25 34)" fill="#222020"/>
    <path id="Shape-12" data-name="Shape" d="M18,38c-1.274-2.334-3.238-5.632-5.05-8.423C11.781,17.643,7.853,9.312,1.026,4.195A2.279,2.279,0,0,1,.015,2.035,2.3,2.3,0,0,1,1.495.155,2.372,2.372,0,0,1,3.878.568C15.325,9.175,18,23.84,18,38Z" transform="translate(90 26)" fill="#222020"/>
    <path id="Shape-13" data-name="Shape" d="M59,5.759c0,1.774.284.6-10.558,25.074-2.533,5.68-13.41,20.4-27.238,24.158S0,57.812,0,57.812v-7.99C0,38.742,6.184,30.8,12.414,28.672a49.453,49.453,0,0,0,13.65-8.554.023.023,0,0,1,.023-.024c.641-.541,1.26-1.058,1.855-1.574a9.032,9.032,0,0,1,12.414.587l.985.517c1.173-2.4-1.248,3.346,6.871-16.144a5.593,5.593,0,0,1,6.3-3.361A5.737,5.737,0,0,1,59,5.759Z" transform="translate(71 91)" fill="#fdd7ad"/>
    <path id="Shape-14" data-name="Shape" d="M15.64,9.425l-11.7,11.9A2.372,2.372,0,0,1,2.295,22a2.281,2.281,0,0,1-2.12-1.428,2.341,2.341,0,0,1,.5-2.532C12.9,5.6,14.511,4.451,16.78.162A.414.414,0,0,1,16.894,0a8.873,8.873,0,0,1,2.829,1.945l.981.509C21.731.368,20.1,4.852,15.64,9.425Z" transform="translate(92 109)" fill="#f9c795"/>
    <path id="Shape-15" data-name="Shape" d="M-59,5.759c0,1.774-.284.6,10.558,25.074,2.533,5.68,13.41,20.4,27.238,24.158S0,57.812,0,57.812v-7.99C0,38.742-6.184,30.8-12.414,28.672a49.453,49.453,0,0,1-13.65-8.554.023.023,0,0,0-.023-.024c-.641-.541-1.26-1.058-1.855-1.574a9.032,9.032,0,0,0-12.414.587l-.985.517c-1.173-2.4,1.248,3.346-6.871-16.144a5.593,5.593,0,0,0-6.3-3.361A5.737,5.737,0,0,0-59,5.759Z" transform="translate(59 91)" fill="#fdd7ad"/>
    <path id="Shape-16" data-name="Shape" d="M-15.64,9.425l11.7,11.9A2.372,2.372,0,0,0-2.295,22a2.281,2.281,0,0,0,2.12-1.428,2.341,2.341,0,0,0-.5-2.532C-12.9,5.6-14.511,4.451-16.78.162A.414.414,0,0,0-16.894,0a8.873,8.873,0,0,0-2.829,1.945l-.981.509C-21.731.368-20.1,4.852-15.64,9.425Z" transform="translate(43 109)" fill="#f9c795"/>
    <g id="Group" transform="translate(32 70)">
      <path id="Shape-17" data-name="Shape" d="M22.526,2.3c-.081.024-8.017,2.455-14.147-1.865a2.44,2.44,0,0,0-3.025.2A5.9,5.9,0,0,1,2.327,2.182,2.26,2.26,0,0,0,0,4.369,2.26,2.26,0,0,0,2.327,6.555,9.021,9.021,0,0,0,7.119,4.9c.351.2.7.372,1.057.54A4.008,4.008,0,0,1,6.982,6.555,2.26,2.26,0,0,0,4.655,8.741c0,2.687,4.3,3.717,8.083-1.791a24.268,24.268,0,0,0,11.29-.514,2.156,2.156,0,0,0,1.427-2.766A2.364,2.364,0,0,0,22.526,2.3Z" transform="translate(0 0.004)" fill="#393f4a"/>
      <path id="Shape-18" data-name="Shape" d="M23.276,2.186A5.892,5.892,0,0,1,20.267.64a2.44,2.44,0,0,0-3.042-.2C11.125,4.733,3.243,2.355,3.08,2.3A2.366,2.366,0,0,0,.125,3.665,2.158,2.158,0,0,0,1.576,6.441a24.223,24.223,0,0,0,11.29.514c1.182,1.725,3.209,3.977,5.755,3.977A2.3,2.3,0,0,0,21,8.745,2.073,2.073,0,0,0,20.35,7.2a2.353,2.353,0,0,0-1.629-.643,3.75,3.75,0,0,1-1.285-1.13c.349-.168.7-.339,1.047-.536a9.019,9.019,0,0,0,4.792,1.666A2.26,2.26,0,0,0,25.6,4.372a2.26,2.26,0,0,0-2.327-2.186Z" transform="translate(44.215 0)" fill="#393f4a"/>
    </g>
  </g>
</svg>
