<svg id="Group_5" data-name="Group 5" xmlns="http://www.w3.org/2000/svg" width="338" height="418" viewBox="0 0 338 418">
  <g id="Group_3" data-name="Group 3">
    <rect id="Rectangle" width="338" height="418" rx="30" fill="var(--ion-color-not-found-icon)"/>
    <g id="cleaning_copy" data-name="cleaning copy" transform="translate(98 223)">
      <g id="Group" transform="translate(0 58)">
        <path id="Path" d="M82.959,83.438H10.37L0,0H93.329Z" transform="translate(7.97 10.882)" fill="#f77219"/>
        <rect id="Rectangle-2" data-name="Rectangle" width="108.884" height="10.766" transform="translate(0.193 0.116)" fill="#f77219"/>
      </g>
      <path id="Path-2" data-name="Path" d="M0,0,1.376,10H94.624L96,0Z" transform="translate(7 68)" fill="#353a3d"/>
      <path id="Path-3" data-name="Path" d="M37,37H0V13.214L10.571,0H26.429L37,13.214Z" transform="translate(14 18)" fill="#fff"/>
      <rect id="Rectangle-3" data-name="Rectangle" width="16" height="19" transform="translate(25)" fill="#e8594a"/>
      <rect id="Rectangle-4" data-name="Rectangle" width="37" height="25" transform="translate(14 33)" fill="#7f64db"/>
      <path id="Rectangle-5" data-name="Rectangle" d="M.248.054,5.537,0,5.289,24.543,0,24.6Z" transform="translate(86.837 11.513) rotate(-26.527)" fill="#e66712"/>
      <g id="Group-2" data-name="Group" transform="translate(61)">
        <rect id="Rectangle-6" data-name="Rectangle" width="10.355" height="11.158" transform="translate(36.445)" fill="#f77219"/>
        <path id="Path-4" data-name="Path" d="M23.3,22.315H0C0,9.992,9.272,0,20.709,0H36.241V11.158Z" transform="translate(0.203)" fill="#f77219"/>
      </g>
      <rect id="Rectangle-7" data-name="Rectangle" width="16" height="10" transform="translate(70 23)" fill="#fffef2"/>
      <path id="Path-5" data-name="Path" d="M7.928,0H23.786L37,13.889V25H0V8.333Z" transform="translate(61 33)" fill="#404183"/>
      <path id="Path-6" data-name="Path" d="M49.875,0H45.765a15.391,15.391,0,0,0-7.132,1.763,15.289,15.289,0,0,1-14.264,0A15.39,15.39,0,0,0,17.236,0H13.125C5.877,0,0,6.157,0,13.75v16.5C0,37.843,5.877,44,13.125,44h4.111a15.391,15.391,0,0,0,7.132-1.763,15.289,15.289,0,0,1,14.264,0A15.389,15.389,0,0,0,45.764,44h4.111C57.123,44,63,37.843,63,30.25V13.75C63,6.157,57.123,0,49.875,0Z" transform="translate(95 130)" fill="#f5a338"/>
      <path id="Path-7" data-name="Path" d="M49.875,27H45.765a15.621,15.621,0,0,1-7.132-1.731h0a15.54,15.54,0,0,0-14.264,0h0A15.619,15.619,0,0,1,17.236,27H13.125A13.318,13.318,0,0,1,0,13.5H0A13.318,13.318,0,0,1,13.125,0h4.111a15.621,15.621,0,0,1,7.132,1.731h0a15.54,15.54,0,0,0,14.264,0h0A15.618,15.618,0,0,1,45.764,0h4.111A13.318,13.318,0,0,1,63,13.5h0A13.317,13.317,0,0,1,49.875,27Z" transform="translate(95 130)" fill="#f9b44d"/>
      <g id="Group-3" data-name="Group" transform="translate(105 139)">
        <rect id="Rectangle-8" data-name="Rectangle" width="5.345" height="5.535" transform="translate(37.656 0.075)" fill="#f5a338"/>
        <rect id="Rectangle-9" data-name="Rectangle" width="5.345" height="5.535" transform="translate(10.929 0.075)" fill="#f5a338"/>
        <rect id="Rectangle-10" data-name="Rectangle" width="5.345" height="5.535" transform="translate(0.239 2.844)" fill="#f5a338"/>
        <rect id="Rectangle-11" data-name="Rectangle" width="5.345" height="5.535" transform="translate(26.966 2.844)" fill="#f5a338"/>
      </g>
      <path id="Path-8" data-name="Path" d="M42,21.539V0H0V61.923A7.977,7.977,0,0,0,7.875,70H34.124A7.977,7.977,0,0,0,42,61.923V35l10.657,5.465a5.626,5.626,0,0,0,7.636-2.606s0,0,0-.005l.066-.134A6.086,6.086,0,0,0,57.8,29.634c-.01-.005-.023-.013-.037-.019Z" transform="translate(27 58)" fill="#d0021b"/>
      <path id="Path-9" data-name="Path" d="M57.756,29.616,41.964,21.539V0H39.971C30.425,32.133,13.674,51.771,0,63.11A7.929,7.929,0,0,0,7.779,70h26.3a7.984,7.984,0,0,0,7.889-8.077V35l10.676,5.465a5.64,5.64,0,0,0,7.65-2.606s0,0,0-.005l.066-.134a6.081,6.081,0,0,0-2.567-8.085C57.779,29.629,57.769,29.621,57.756,29.616Z" transform="translate(27 58)" fill="#980013"/>
      <g id="Group-4" data-name="Group" transform="translate(34 100)">
        <rect id="Rectangle-12" data-name="Rectangle" width="5.333" height="26.783" transform="translate(0.124 0.188)"/>
        <rect id="Rectangle-13" data-name="Rectangle" width="5.333" height="26.783" transform="translate(10.789 0.188)"/>
        <rect id="Rectangle-14" data-name="Rectangle" width="5.333" height="26.783" transform="translate(21.454 0.188)"/>
      </g>
    </g>
    <g id="Oval" transform="translate(129 134)" fill="none" stroke="#ff5c5c" stroke-miterlimit="10" stroke-width="2" opacity="0.3">
      <circle cx="5" cy="5" r="5" stroke="none"/>
      <circle cx="5" cy="5" r="4" fill="none"/>
    </g>
    <g id="Oval-2" data-name="Oval" transform="translate(178 129)" fill="none" stroke="#ff5c5c" stroke-miterlimit="10" stroke-width="2" opacity="0.3">
      <circle cx="5" cy="5" r="5" stroke="none"/>
      <circle cx="5" cy="5" r="4" fill="none"/>
    </g>
    <g id="Oval_Copy" data-name="Oval Copy" transform="translate(115 163)" fill="none" stroke="#ff5c5c" stroke-miterlimit="10" stroke-width="2" opacity="0.3">
      <ellipse cx="10" cy="10.5" rx="10" ry="10.5" stroke="none"/>
      <ellipse cx="10" cy="10.5" rx="9" ry="9.5" fill="none"/>
    </g>
    <g id="Oval_Copy_2" data-name="Oval Copy 2" transform="translate(148 151)" fill="none" stroke="#ff5c5c" stroke-miterlimit="10" stroke-width="2" opacity="0.3">
      <circle cx="7.5" cy="7.5" r="7.5" stroke="none"/>
      <circle cx="7.5" cy="7.5" r="6.5" fill="none"/>
    </g>
    <g id="Oval_Copy_3" data-name="Oval Copy 3" transform="translate(188 158)" fill="none" stroke="#ff5c5c" stroke-miterlimit="10" stroke-width="2" opacity="0.3">
      <ellipse cx="6" cy="6.5" rx="6" ry="6.5" stroke="none"/>
      <ellipse cx="6" cy="6.5" rx="5" ry="5.5" fill="none"/>
    </g>
    <g id="Oval_Copy_4" data-name="Oval Copy 4" transform="translate(148 175)" fill="none" stroke="#ff5c5c" stroke-miterlimit="10" stroke-width="2" opacity="0.3">
      <circle cx="14" cy="14" r="14" stroke="none"/>
      <circle cx="14" cy="14" r="13" fill="none"/>
    </g>
  </g>
</svg>
