<svg xmlns="http://www.w3.org/2000/svg" width="172" height="172" viewBox="0 0 172 172">
  <g id="Group_1" data-name="Group 1" transform="translate(-98 -305)">
    <circle id="Oval" cx="86" cy="86" r="86" transform="translate(98 305)" fill="#ca5163" opacity="0.1"/>
    <circle id="Oval-2" data-name="Oval" cx="75" cy="75" r="75" transform="translate(109 316)" fill="#ca5163" opacity="0.1"/>
    <path id="Shape" d="M40,84a2.281,2.281,0,0,1-1.564-.627,35.118,35.118,0,0,1-3.653-4.2,34.308,34.308,0,0,1-5.39-10.212,21.548,21.548,0,0,1-8.22,1.728C9.868,70.686.974,60.419.6,59.982A2.553,2.553,0,0,1,.6,56.7a37.289,37.289,0,0,1,8.848-7.231C-.864,37.832-.009,19.469.032,18.693a2.4,2.4,0,0,1,2.21-2.322c.1-.006.614-.033,1.46-.033a50.623,50.623,0,0,1,10.282,1.106,54.755,54.755,0,0,1,3.539-11.8,2.348,2.348,0,0,1,2.113-1.395,2.243,2.243,0,0,1,.776.139A49.429,49.429,0,0,1,30.851,10.1,52.231,52.231,0,0,1,38.437.628a2.258,2.258,0,0,1,3.126,0A52.239,52.239,0,0,1,49.149,10.1,49.387,49.387,0,0,1,59.587,4.393a2.242,2.242,0,0,1,.777-.14,2.348,2.348,0,0,1,2.112,1.4,55.755,55.755,0,0,1,3.539,11.795,50.635,50.635,0,0,1,10.279-1.105c.884,0,1.406.03,1.462.033a2.4,2.4,0,0,1,2.211,2.321c.041.777.875,19.164-9.417,30.776A37.69,37.69,0,0,1,79.4,56.7a2.553,2.553,0,0,1,0,3.284c-.373.437-9.267,10.7-20.572,10.7a21.565,21.565,0,0,1-8.221-1.727,37.4,37.4,0,0,1-9.043,14.414A2.279,2.279,0,0,1,40,84Zm.5-22A39.047,39.047,0,0,1,34,66.894,30.415,30.415,0,0,0,40.5,78,30.6,30.6,0,0,0,47,66.894,39.065,39.065,0,0,1,40.5,62Zm26.823-9C60.413,58.369,51.914,60.175,46,60.745,49.1,63.141,53.905,66,59.152,66,66,66,72.02,61.271,75,58.452A32.684,32.684,0,0,0,67.323,53ZM13.671,53h0A32.468,32.468,0,0,0,6,58.447C8.991,61.267,15.026,66,21.839,66a18.859,18.859,0,0,0,8.789-2.408,2.3,2.3,0,0,1,.249-.134A30.823,30.823,0,0,0,35,60.748C29.083,60.178,20.578,58.37,13.671,53ZM40,6C36.695,9.67,29,19.4,29,30.5S36.693,51.33,40,55c3.306-3.67,11-13.4,11-24.5a25.823,25.823,0,0,0-.361-4.243C49.067,16.856,42.677,8.959,40,6ZM76,21c-4.464.13-13.008,1.017-20.071,5.5a29.758,29.758,0,0,1,.214,3.516,34.162,34.162,0,0,1-3.492,14.55A50.967,50.967,0,0,1,46,55c6.339-.625,15.16-2.665,21.177-8.845C74.745,38.38,75.868,25.973,76,21ZM5,21c.139,4.981,1.276,17.4,8.817,25.15C19.853,52.347,28.668,54.383,35,55a50.951,50.951,0,0,1-6.653-10.433,34.147,34.147,0,0,1-3.5-14.551,29.92,29.92,0,0,1,.213-3.515C17.986,22,9.455,21.124,5,21ZM59.615,10A49.165,49.165,0,0,0,52,14.482,41.934,41.934,0,0,1,54.91,22,37.462,37.462,0,0,1,62,18.859,54.88,54.88,0,0,0,59.615,10Zm-38.23,0h0A55.021,55.021,0,0,0,19,18.86,37.462,37.462,0,0,1,26.09,22,41.894,41.894,0,0,1,29,14.483,49.168,49.168,0,0,0,21.385,10Z" transform="translate(143 349)" fill="#e67966"/>
  </g>
</svg>
