<svg id="_ionicons_svg_ios-car_copy_2" data-name="_ionicons_svg_ios-car copy 2" xmlns="http://www.w3.org/2000/svg" width="54" height="49" viewBox="0 0 54 49">
  <path id="Combined_Shape" data-name="Combined Shape" d="M0,49V47H54v2Zm36.968-3a.351.351,0,0,1-.258-.105c-.255-.262-.237-.974-.219-1.663,0-.174.009-.353.009-.521h.015c4.447,0,8.94-.472,8.985-.476,0,.294.007.574.014.844.022.871.038,1.559-.211,1.814a.36.36,0,0,1-.272.108ZM10.063,46c-.261,0-.418-.226-.493-.71a13.577,13.577,0,0,1-.069-1.84v-.216c.038,0,4.556.477,9,.477,0,.149,0,.307.005.459.012.723.024,1.47-.233,1.731a.324.324,0,0,1-.241.1ZM8.582,41.879A.762.762,0,0,1,8,41.135v-7.25a8.159,8.159,0,0,1,1.387-4.591,21.328,21.328,0,0,1,3.062-3.448l.051-.05a23.126,23.126,0,0,1,3.429-5.571C17.785,18.085,19.786,17,21.875,17h11.25c2.086,0,4.1,1.109,5.995,3.3a22.811,22.811,0,0,1,3.38,5.5c2.177,1.87,4.5,4.192,4.5,8.089v7.25a.762.762,0,0,1-.581.743c-1.257.293-5.619.973-18.918.973S9.839,42.171,8.582,41.879ZM38,35.7a3,3,0,1,0,3-3.053A3.031,3.031,0,0,0,38,35.7Zm-27-.029a3,3,0,1,0,3-3.053A3.031,3.031,0,0,0,11,35.669Zm9.751.029a1.515,1.515,0,0,0,1.5,1.526h10.5a1.527,1.527,0,0,0,0-3.053H22.25A1.515,1.515,0,0,0,20.75,35.7ZM17.176,22.271a10.255,10.255,0,0,0-1.676,3.7h24a9.658,9.658,0,0,0-1.512-3.731c-.864-1.344-2.31-2.946-4.3-2.946H21.313C19.552,19.29,18.091,20.911,17.176,22.271ZM5,11v-.03A3.2,3.2,0,0,1,2,8,3.279,3.279,0,0,1,5.5,5a3.821,3.821,0,0,1,2.393.811,4.5,4.5,0,0,1,7.853,1.2C15.83,7,15.915,7,16,7c1.657,0,3,.9,3,2s-1.343,2-3,2a4.452,4.452,0,0,1-.72-.058,4.508,4.508,0,0,1-4.921,1.912A3,3,0,0,1,5,11ZM40.65,5.532A2.454,2.454,0,0,1,38.5,7,2.785,2.785,0,0,1,36,4a2.784,2.784,0,0,1,2.5-3,2.33,2.33,0,0,1,1.847.978,3.5,3.5,0,0,1,6.506.517A2.88,2.88,0,0,1,48.5,2,2.293,2.293,0,0,1,51,4a2.293,2.293,0,0,1-2.5,2,2.759,2.759,0,0,1-1.962-.76,3.5,3.5,0,0,1-5.888.293Z" />
</svg>
