<svg xmlns="http://www.w3.org/2000/svg" width="16" height="20" viewBox="0 0 16 20">
  <path id="Shape" d="M15.356,20H.644a.624.624,0,0,1-.455-.2A.7.7,0,0,1,0,19.286a.678.678,0,0,1,.661-.645H.9c.265,0,.55-.028.584-.359v-.005c.442-4.379,2.309-5.892,3.544-6.894.616-.5,1.062-.861,1.062-1.383s-.445-.883-1.061-1.383c-1.234-1-3.1-2.515-3.545-6.893V1.718c-.034-.331-.319-.359-.584-.359H.644a.624.624,0,0,1-.455-.2A.7.7,0,0,1,0,.645.678.678,0,0,1,.662,0H15.356a.623.623,0,0,1,.454.2A.7.7,0,0,1,16,.714a.68.68,0,0,1-.662.645H15.1c-.265,0-.55.028-.584.359v.005c-.443,4.379-2.309,5.892-3.545,6.894-.616.5-1.062.861-1.062,1.383s.445.883,1.061,1.383c1.234,1,3.1,2.515,3.545,6.893v.005c.034.331.319.359.584.359h.234a.68.68,0,0,1,.662.645.7.7,0,0,1-.189.517A.624.624,0,0,1,15.356,20ZM4.459,5a.425.425,0,0,0-.385.232.387.387,0,0,0,.038.412A9.5,9.5,0,0,0,5.97,7.4C6.711,7.983,7.3,8.44,7.3,8.994v2.891c0,.686-.478,1-1.14,1.43a6.929,6.929,0,0,0-3.1,3.854.757.757,0,0,0,.035.668A.386.386,0,0,0,3.426,18h9.143a.39.39,0,0,0,.339-.173.728.728,0,0,0,.028-.658,7.442,7.442,0,0,0-3.113-3.829c-.658-.445-1.133-.767-1.133-1.455V8.994c0-.549.584-1,1.323-1.579a9.2,9.2,0,0,0,1.874-1.781.379.379,0,0,0,.034-.4A.432.432,0,0,0,11.532,5Z" transform="translate(0)" />
</svg>
