<svg xmlns="http://www.w3.org/2000/svg" width="23" height="16" viewBox="0 0 23 16">
  <g id="_ionicons_svg_ios-card_copy" data-name="_ionicons_svg_ios-card copy" transform="translate(0 -0.071)">
    <path id="Shape" d="M21.357,16H1.643A1.624,1.624,0,0,1,0,14.4v-8H23v8A1.624,1.624,0,0,1,21.357,16ZM7.29,12a.7.7,0,1,0,0,1.4H15.71a.7.7,0,1,0,0-1.4Zm-3.7,0a.7.7,0,1,0,0,1.4H4.21a.7.7,0,1,0,0-1.4ZM23,4H0V1.6A1.624,1.624,0,0,1,1.643,0H21.357A1.624,1.624,0,0,1,23,1.6V4Z" transform="translate(0 0.071)" fill="#fff"/>
  </g>
</svg>
