<svg id="_ionicons_svg_ios-car" xmlns="http://www.w3.org/2000/svg" width="39" height="29" viewBox="0 0 39 29">
  <path id="Shape" d="M37.031,29H28.968a.347.347,0,0,1-.258-.106c-.255-.261-.236-.974-.219-1.663,0-.174.009-.353.009-.521h.015c4.447,0,8.94-.471,8.985-.476,0,.295.007.574.014.844.021.871.038,1.559-.211,1.814A.36.36,0,0,1,37.031,29Zm-27,0H2.063c-.261,0-.418-.226-.494-.71a13.616,13.616,0,0,1-.069-1.84v-.216c.038,0,4.556.477,9,.477,0,.15,0,.307.005.459.012.723.024,1.469-.233,1.731A.326.326,0,0,1,10.031,29ZM19.5,25.852c-13.3,0-17.661-.68-18.919-.973A.762.762,0,0,1,0,24.135v-7.25a8.161,8.161,0,0,1,1.387-4.591A21.313,21.313,0,0,1,4.449,8.846L4.5,8.8A23.15,23.15,0,0,1,7.929,3.224C9.785,1.085,11.785,0,13.875,0h11.25c2.086,0,4.1,1.109,6,3.3A22.813,22.813,0,0,1,34.5,8.8c2.177,1.87,4.5,4.193,4.5,8.089v7.25a.762.762,0,0,1-.581.743C37.161,25.171,32.8,25.852,19.5,25.852ZM33,15.645A3.053,3.053,0,1,0,36,18.7,3.03,3.03,0,0,0,33,15.645ZM6,15.616a3.053,3.053,0,0,0,0,6.106,3.053,3.053,0,0,0,0-6.106Zm8.249,1.555a1.527,1.527,0,0,0,0,3.053h10.5a1.527,1.527,0,0,0,0-3.053ZM13.313,2.29c-1.761,0-3.222,1.621-4.137,2.981A10.256,10.256,0,0,0,7.5,8.967h24a9.652,9.652,0,0,0-1.512-3.731c-.863-1.344-2.31-2.946-4.3-2.946Z" fill="#f3c6b6"/>
</svg>
