<svg id="_ionicons_svg_ios-home" xmlns="http://www.w3.org/2000/svg" width="33" height="34" viewBox="0 0 33 34">
  <path id="Path" d="M12.188.072a.279.279,0,0,0-.375,0L.112,10.1A.347.347,0,0,0,0,10.353V28.839A.156.156,0,0,0,.15,29h8.1a.156.156,0,0,0,.15-.161V17.586a.156.156,0,0,1,.15-.161h6.9a.156.156,0,0,1,.15.161V28.839a.156.156,0,0,0,.15.161h8.1a.156.156,0,0,0,.15-.161V10.353a.334.334,0,0,0-.112-.249Z" transform="translate(5 5)" fill="#f6c4b9"/>
  <path id="Path-2" data-name="Path" d="M32.57,12.888,17.582.4A1.688,1.688,0,0,0,15.41.4L8.883,5.916V2.434a.162.162,0,0,0-.159-.165H3.966a.162.162,0,0,0-.159.165v7.607l-3.386,2.9a1.179,1.179,0,0,0-.42.842,1.194,1.194,0,0,0,.325.883,1.08,1.08,0,0,0,1.483.083L16.393,2.533a.138.138,0,0,1,.1-.033.187.187,0,0,1,.1.033L31.183,14.695a1.091,1.091,0,0,0,.7.256,1.076,1.076,0,0,0,.785-.338A1.17,1.17,0,0,0,33,13.729,1.187,1.187,0,0,0,32.57,12.888Z" fill="#f6c4b9"/>
</svg>
