<svg id="qr-code" xmlns="http://www.w3.org/2000/svg" width="21" height="21" viewBox="0 0 21 21">
  <path id="Shape" d="M9,9H0V0H9V9ZM1.8,1.8V7.186H7.2V1.8Z" transform="translate(0 12)" fill="#96525c"/>
  <rect id="Rectangle" width="2" height="2" transform="translate(4 15)" fill="#96525c"/>
  <rect id="Rectangle-2" data-name="Rectangle" width="2" height="2" transform="translate(15 19)" fill="#96525c"/>
  <rect id="Rectangle-3" data-name="Rectangle" width="2" height="2" transform="translate(19 19)" fill="#96525c"/>
  <path id="Path" d="M7.2,1.8H5.4V0H0V9H1.8V3.6H3.6V5.4H9V0H7.2Z" transform="translate(12 12)" fill="#96525c"/>
  <path id="Shape-2" data-name="Shape" d="M9,9H0V0H9V9ZM1.8,1.8V7.2H7.2V1.8Z" fill="#96525c"/>
  <rect id="Rectangle-4" data-name="Rectangle" width="2" height="2" transform="translate(4 4)" fill="#96525c"/>
  <path id="Shape-3" data-name="Shape" d="M9,9H0V0H9V9ZM1.8,1.8V7.2H7.2V1.8Z" transform="translate(12)" fill="#96525c"/>
  <rect id="Rectangle-5" data-name="Rectangle" width="2" height="2" transform="translate(15 4)" fill="#96525c"/>
</svg>
