<svg xmlns="http://www.w3.org/2000/svg" width="18.5" height="14.5" viewBox="0 0 18.5 14.5">
  <g id="Group_4" data-name="Group 4" transform="translate(-0.75 -0.75)" opacity="0.5">
    <path id="Shape" d="M18.5,14.5H16.346A2.9,2.9,0,0,1,13.5,11.558V2.942A2.9,2.9,0,0,1,16.346,0H18.5V1.577H16.346a1.339,1.339,0,0,0-1.308,1.365v8.616a1.339,1.339,0,0,0,1.308,1.365H18.5V14.5Zm-9.25,0H2.5A2.456,2.456,0,0,1,0,12.1V2.4A2.456,2.456,0,0,1,2.5,0H9.25a2.456,2.456,0,0,1,2.5,2.4V12.1A2.456,2.456,0,0,1,9.25,14.5ZM2.5,1.577a.861.861,0,0,0-.868.724l-.006.1V12.1a.845.845,0,0,0,.764.821l.111.006H9.25a.859.859,0,0,0,.868-.724l.007-.1V2.4a.846.846,0,0,0-.765-.821l-.11-.006Z" transform="translate(0.75 0.75)" fill="#d0959e"/>
  </g>
</svg>
