<svg xmlns="http://www.w3.org/2000/svg" width="17" height="17" viewBox="0 0 20 20">
  <path id="Shape" d="M14.426,17a2.565,2.565,0,0,1-2.379-1.55l-.063-.165H.8a.785.785,0,0,1-.107-1.564L.8,13.714H11.984l.063-.165A2.557,2.557,0,1,1,14.426,17Zm0-3.429a.93.93,0,1,0,.981.929A.958.958,0,0,0,14.426,13.571ZM8.562,11A2.641,2.641,0,0,1,6.146,9.5L6.08,9.335H.8A.777.777,0,0,1,.689,7.787L.8,7.78H6.038a2.684,2.684,0,0,1,4.99-.161l.058.161H16.2a.777.777,0,0,1,.107,1.548l-.107.007H11.043A2.633,2.633,0,0,1,8.562,11Zm0-3.445A1,1,0,0,0,7.519,8.5a1,1,0,0,0,1.043.945A1,1,0,0,0,9.6,8.5,1,1,0,0,0,8.562,7.555ZM2.574,5A2.541,2.541,0,0,1,0,2.5,2.541,2.541,0,0,1,2.574,0,2.565,2.565,0,0,1,4.953,1.55l.063.165H16.2a.785.785,0,0,1,.107,1.564l-.107.007H5.016l-.063.165A2.566,2.566,0,0,1,2.574,5Zm0-3.429a.957.957,0,0,0-.981.929.957.957,0,0,0,.981.929A.958.958,0,0,0,3.556,2.5.958.958,0,0,0,2.574,1.571Z" />
</svg>
