<svg id="Group" xmlns="http://www.w3.org/2000/svg" width="21" height="24" viewBox="0 0 21 24">
  <path id="Shape" d="M18.981,24H5.25a1.988,1.988,0,0,1-2.019-2V5.2H0V2A1.988,1.988,0,0,1,2.02,0H16.961a1.988,1.988,0,0,1,2.02,2V20H21v2A1.988,1.988,0,0,1,18.981,24ZM7.269,20.8V22a1.872,1.872,0,0,1-.4,1.2H18.981A1.18,1.18,0,0,0,20.192,22V20.8ZM3.634.8a2.112,2.112,0,0,1,.4,1.2V22A1.18,1.18,0,0,0,5.25,23.2,1.18,1.18,0,0,0,6.461,22V20H18.173V2A1.179,1.179,0,0,0,16.961.8ZM2.02.8A1.18,1.18,0,0,0,.807,2V4.4H3.231V2A1.179,1.179,0,0,0,2.02.8Z" fill="#c1989e"/>
  <path id="Path" d="M0,0H3V1H0Z" transform="translate(14 13)" fill="#c1989e"/>
  <path id="Path-2" data-name="Path" d="M0,0H8V1H0Z" transform="translate(5 13)" fill="#c1989e"/>
  <path id="Path-3" data-name="Path" d="M0,0H5V1H0Z" transform="translate(12 17)" fill="#c1989e"/>
  <path id="Path-4" data-name="Path" d="M0,0H6V1H0Z" transform="translate(5 17)" fill="#c1989e"/>
  <path id="Shape-2" data-name="Shape" d="M3,7H3l-.513-.325A5.281,5.281,0,0,1,0,2.279V.936L3,0,6,.936V2.279a5.281,5.281,0,0,1-2.486,4.4L3,7ZM3,.814.857,1.506v.733a4.361,4.361,0,0,0,2.1,3.744L3,6.023h.043a4.463,4.463,0,0,0,2.1-3.744V1.506Z" transform="translate(8 4)" fill="#c1989e"/>
  <path id="Path-5" data-name="Path" d="M2,.067,1.111,0A2.042,2.042,0,0,1,0,1.433L.489,2A2.708,2.708,0,0,0,2,.067Z" transform="translate(10 6)" fill="#c1989e"/>
  <path id="Path-6" data-name="Path" d="M0,0H10V1H0Z" transform="translate(7 15)" fill="#c1989e"/>
  <path id="Path-7" data-name="Path" d="M0,0H2V1H0Z" transform="translate(5 15)" fill="#c1989e"/>
</svg>
