<svg xmlns="http://www.w3.org/2000/svg" width="58.5" height="40" viewBox="0 0 58.5 40">
  <g id="Group_7" data-name="Group 7" transform="translate(-16 -62)">
    <g id="_ionicons_svg_ios-home_copy" data-name="_ionicons_svg_ios-home copy" transform="translate(20.5 62)">
      <path id="Combined_Shape" data-name="Combined Shape" d="M0,26.351H0V9.731A.324.324,0,0,1,.109,9.5L11.321.068a.271.271,0,0,1,.359,0L22.892,9.5A.313.313,0,0,1,23,9.731V25.643a45.4,45.4,0,0,0-8.05-1.067V16.531a.147.147,0,0,0-.143-.151H8.194a.148.148,0,0,0-.144.151v8.177A33.661,33.661,0,0,0,0,26.351Z" transform="translate(3.5 4)" />
      <path id="Path" d="M28.622,11.169,15.451.343a1.5,1.5,0,0,0-1.909,0L7.806,5.127V2.109a.142.142,0,0,0-.139-.143H3.486a.142.142,0,0,0-.139.143V8.7L.371,11.212a1.018,1.018,0,0,0-.084,1.494.959.959,0,0,0,1.3.072L14.406,2.2a.123.123,0,0,1,.091-.029.166.166,0,0,1,.091.029L27.4,12.735a.967.967,0,0,0,.613.222.952.952,0,0,0,.69-.293A1.006,1.006,0,0,0,29,11.9,1.024,1.024,0,0,0,28.622,11.169Z" transform="translate(0.5)" />
    </g>
    <path id="Combined_Shape-2" data-name="Combined Shape" d="M37.5,37H0S2.58,27,19.78,27c10.076,0,16.315,3.432,19.755,6.275a9.121,9.121,0,0,1,5.049-3.015l.264-12.618,0-.168a4.063,4.063,0,0,1-.664-3.906A5.882,5.882,0,1,1,47.6,2.737,5.915,5.915,0,0,1,58.5,5.881a5.834,5.834,0,0,1-.981,3.246,5.256,5.256,0,0,1,.981,3.087,4.775,4.775,0,0,1-4.546,4.976,4.217,4.217,0,0,1-2.172-.6,4.088,4.088,0,0,1-1.457,1.724c-.249,1.7-.627,4.353-.806,4.82a26.048,26.048,0,0,1-1.688,2.62L46.256,28l-.358-.252-.125,2.319A12.2,12.2,0,0,1,47.066,30,11.338,11.338,0,0,1,57.5,37Zm8.446-10.17,1.438-2.059a20.515,20.515,0,0,0,1.279-1.981c.127-.331.42-2.347.66-3.993a4.126,4.126,0,0,1-2.938-.146Zm3.319-15.789c.085.026.169.056.252.087q.02-.1.043-.2c-.053-.031-.105-.064-.158-.1C49.36,10.9,49.314,10.973,49.266,11.041Z" transform="translate(16 65)" />
  </g>
</svg>
